<svg xmlns="http://www.w3.org/2000/svg" width="20.076" height="38.277" viewBox="0 0 20.076 38.277">
  <path id="Path_38" data-name="Path 38" d="M649.034,695.857a10.053,10.053,0,0,0,6.938-9.544c0-2.23-1.046-7.086-3.038-12.053l-.181-.447H639.115l-.181.447c-1.993,4.967-3.038,9.823-3.038,12.053a10.052,10.052,0,0,0,6.945,9.548,3.223,3.223,0,0,1,2.261,3.048l.018,8.367a3.123,3.123,0,0,1-2.279,3.013l-2.915.823a.521.521,0,0,0,.249.978h11.518a.515.515,0,0,0,.5-.39.52.52,0,0,0-.251-.588l-2.9-.823a3.121,3.121,0,0,1-2.273-3.006v-8.367A3.231,3.231,0,0,1,649.034,695.857Zm-8.959-20.626h11.717c1.794,4.6,2.762,9.1,2.762,11.082a8.664,8.664,0,0,1-.073,1.1c-.938,1.045-16.157,1.045-17.1,0a8.664,8.664,0,0,1-.072-1.1C637.314,684.335,638.282,679.829,640.075,675.231Z" transform="translate(-635.896 -673.813)" fill="#060708" opacity="0.1"/>
</svg>
