<svg xmlns="http://www.w3.org/2000/svg" width="177.334" height="54.412" viewBox="0 0 177.334 54.412">
  <g id="Group_19" data-name="Group 19" transform="translate(-122.336 -182.353)">
    <g id="Group_18" data-name="Group 18" transform="translate(122.336 182.353)">
      <g id="Group_16" data-name="Group 16" transform="translate(73.854 0.185)">
        <path id="Path_9" data-name="Path 9" d="M982.06,288.772l.1,11.342a45.884,45.884,0,0,0,.3,5.844,6.663,6.663,0,0,0,.878,2.669h-4.111q.68-.875.989-4.059t.307-9.3a53,53,0,0,0-.283-7.024,3.277,3.277,0,0,0-1.012-2.156h3.678q.99,0,2.208,1.855c.2.318.37.57.494.753q.993,1.46,3.064,4.616,4.795,7.329,7.7,11.309l.033-9.85q0-4.736-.2-6.41a4.6,4.6,0,0,0-.7-2.273h3.32a4.6,4.6,0,0,0-.705,2.567q-.193,2.084-.194,8.433V308.73h-2.271q-1.169-1.855-5.818-8.581t-7.788-11.377" transform="translate(-979.236 -285.701)" fill="#0e1e35" fill-rule="evenodd"/>
        <path id="Path_10" data-name="Path 10" d="M1194.46,304.29a5.933,5.933,0,0,0,5.049-2.482,11.451,11.451,0,0,0,1.831-6.911,13.715,13.715,0,0,0-1.962-7.858,6.174,6.174,0,0,0-5.367-2.859,6.527,6.527,0,0,0-5.467,2.524,11.289,11.289,0,0,0-1.962,7.076q0,4.981,2.073,7.745a6.833,6.833,0,0,0,5.8,2.765m-1.093,1.69q-4.961,0-7.647-2.926t-2.687-8.333q0-5.885,2.918-9t8.428-3.114q5.2,0,7.828,2.772t2.626,8.263a12.662,12.662,0,0,1-3.125,8.977,10.838,10.838,0,0,1-8.342,3.364" transform="translate(-1160.097 -282.604)" fill="#0e1e35" fill-rule="evenodd"/>
        <path id="Path_11" data-name="Path 11" d="M1410.207,294.611a5.362,5.362,0,0,0,.668.1c.239.024.507.035.805.035a5.379,5.379,0,0,0,3.917-1.335,5.083,5.083,0,0,0,1.369-3.815,4.112,4.112,0,0,0-1.043-3.079,4.41,4.41,0,0,0-3.177-1.01c-.557,0-.993.011-1.306.026s-.614.044-.9.078a14.535,14.535,0,0,0-.257,2.386q-.081,1.633-.08,4.627v1.986Zm-2.9-10.286q2.057,0,4.6-.113t3.04-.111a6.185,6.185,0,0,1,4.03,1.139,4.093,4.093,0,0,1,1.374,3.347,5.975,5.975,0,0,1-1.352,3.843,9.835,9.835,0,0,1-3.969,2.783l5.012,7.007a32.912,32.912,0,0,0,2.3,2.894,11.767,11.767,0,0,0,1.892,1.744h-3.321a1.758,1.758,0,0,1-1.766-.908l-5.977-8.45a3.8,3.8,0,0,0-1.219-1.219,3.168,3.168,0,0,0-1.459-.292h-.285v2.145a65.637,65.637,0,0,0,.2,6.674,3.962,3.962,0,0,0,.7,2.051h-4.843a4.471,4.471,0,0,0,.7-2.369q.2-1.855.2-7.934V295.11q0-6.62-.2-8.444a4.419,4.419,0,0,0-.7-2.341Z" transform="translate(-1358.206 -283.933)" fill="#0e1e35" fill-rule="evenodd"/>
        <path id="Path_12" data-name="Path 12" d="M1559.158,308.635a4.3,4.3,0,0,0,.7-2.3q.206-1.787.2-7.629V297.35q0-2.841-.052-5.06t-.159-4.272h-3.743a8.4,8.4,0,0,0-2.007.2,5.176,5.176,0,0,0-1.474.647l.84-2.759h17.917a3.605,3.605,0,0,1-1.476,1.389,5.387,5.387,0,0,1-2.317.422l-4.294.033q-.108,2.335-.15,4.762t-.044,5.136q0,6.637.2,8.457a4.375,4.375,0,0,0,.7,2.332Z" transform="translate(-1488.093 -285.71)" fill="#0e1e35" fill-rule="evenodd"/>
        <path id="Path_13" data-name="Path 13" d="M1749.95,295.957V294.79q0-4.948-.194-6.526a4.2,4.2,0,0,0-.708-2.164h4.844a4.044,4.044,0,0,0-.708,2.284q-.193,1.783-.194,7.608v2.735q0,5.83.194,7.619a4.04,4.04,0,0,0,.708,2.286h-4.844a4.491,4.491,0,0,0,.708-2.277q.2-1.679.194-6.428v-2.674h-10.478v2.674a65.569,65.569,0,0,0,.2,6.658,3.949,3.949,0,0,0,.7,2.047h-4.844a4.436,4.436,0,0,0,.7-2.365q.2-1.849.2-7.917v-1.441q0-6.633-.2-8.463a4.407,4.407,0,0,0-.7-2.345h4.844a3.962,3.962,0,0,0-.7,2.042,65.3,65.3,0,0,0-.2,6.647v1.167Z" transform="translate(-1650.413 -285.707)" fill="#0e1e35" fill-rule="evenodd"/>
        <path id="Path_14" data-name="Path 14" d="M996.786,554.785l-.2,4.832a6.05,6.05,0,0,0-2.11-2.783,5.672,5.672,0,0,0-3.294-.934,7.417,7.417,0,0,0-5.927,2.5,10.183,10.183,0,0,0-2.151,6.878,10.511,10.511,0,0,0,2.362,7.209,8,8,0,0,0,6.314,2.683,8.448,8.448,0,0,0,3.5-.729,8.131,8.131,0,0,0,2.809-2.088,6.562,6.562,0,0,1-2.776,3.937,8.957,8.957,0,0,1-5.18,1.472,9.823,9.823,0,0,1-7.564-3.209,11.7,11.7,0,0,1-2.955-8.254q0-5.582,3.175-8.747t8.77-3.166a24.862,24.862,0,0,1,2.617.2,24.232,24.232,0,0,0,2.617.2" transform="translate(-979.565 -523.793)" fill="#0e1e35" fill-rule="evenodd"/>
        <path id="Path_15" data-name="Path 15" d="M1179.544,576.069a5.93,5.93,0,0,0,5.049-2.482,11.439,11.439,0,0,0,1.831-6.911,13.733,13.733,0,0,0-1.96-7.858,6.176,6.176,0,0,0-5.367-2.859,6.544,6.544,0,0,0-5.472,2.524,11.3,11.3,0,0,0-1.96,7.076q0,4.978,2.073,7.745a6.836,6.836,0,0,0,5.8,2.765m-1.093,1.69q-4.961,0-7.647-2.926t-2.687-8.333q0-5.889,2.918-9t8.429-3.116q5.2,0,7.828,2.772t2.626,8.263a12.661,12.661,0,0,1-3.124,8.977,10.839,10.839,0,0,1-8.342,3.364" transform="translate(-1146.86 -523.795)" fill="#0e1e35" fill-rule="evenodd"/>
        <path id="Path_16" data-name="Path 16" d="M1375.016,569.3h7.118l-3.318-9.056Zm-7.828,11.1a31.791,31.791,0,0,0,3.214-4.825,76.154,76.154,0,0,0,3.4-7.085q1.5-3.485,2.467-6.229a16.841,16.841,0,0,0,.971-3.294,2.062,2.062,0,0,0-.072-.54,3.45,3.45,0,0,0-.209-.56h4.365q2.561,8.514,4.83,14.364a41.654,41.654,0,0,0,3.9,8.169h-3.85l-3.545-9.8h-8.217l-1.513,3.7-.033.087a14.97,14.97,0,0,0-1.411,4.925,3.213,3.213,0,0,0,.044.509,5.378,5.378,0,0,0,.128.577Z" transform="translate(-1323.526 -526.889)" fill="#0e1e35" fill-rule="evenodd"/>
        <path id="Path_17" data-name="Path 17" d="M1582.215,576.436v-3.861a7.343,7.343,0,0,0,2.669,2.68,7.246,7.246,0,0,0,3.664.925,4.652,4.652,0,0,0,3.323-1.2,4.053,4.053,0,0,0,1.278-3.083,4.114,4.114,0,0,0-.862-2.58,9.128,9.128,0,0,0-2.916-2.223l-.464-.257q-5.954-3.24-5.955-6.584a5.188,5.188,0,0,1,2.029-4.228,8.183,8.183,0,0,1,5.3-1.637c.7,0,1.463.022,2.3.068s1.315.068,1.455.068c.046,0,.139.007.283.017s.266.015.37.015h.888v3.662a4.412,4.412,0,0,0-1.866-1.72,6.244,6.244,0,0,0-2.8-.59,5.622,5.622,0,0,0-3.473.964,3.086,3.086,0,0,0-1.274,2.6q0,2.423,4.672,4.884l.224.1a13.911,13.911,0,0,1,4.163,3.057,5.235,5.235,0,0,1,1.25,3.418,6.172,6.172,0,0,1-2.315,4.831,8.425,8.425,0,0,1-5.713,2,14.12,14.12,0,0,1-2.885-.322,23.757,23.757,0,0,1-3.346-1" transform="translate(-1514.353 -523.797)" fill="#0e1e35" fill-rule="evenodd"/>
        <path id="Path_18" data-name="Path 18" d="M1737.846,580.4a4.32,4.32,0,0,0,.7-2.3q.2-1.783.2-7.625v-1.359q0-2.838-.057-5.058t-.157-4.272H1734.8a8.286,8.286,0,0,0-2.01.2,5.077,5.077,0,0,0-1.474.645l.84-2.761h17.92a3.6,3.6,0,0,1-1.479,1.389,5.34,5.34,0,0,1-2.314.422l-4.294.037q-.108,2.332-.153,4.76t-.043,5.136q0,6.636.2,8.455a4.4,4.4,0,0,0,.7,2.334Z" transform="translate(-1646.67 -526.889)" fill="#0e1e35" fill-rule="evenodd"/>
      </g>
      <g id="Group_17" data-name="Group 17" transform="translate(0)">
        <rect id="Rectangle_30" data-name="Rectangle 30" width="54.39" height="54.412" transform="translate(12.79)" fill="#0e1e35"/>
        <path id="Path_19" data-name="Path 19" d="M323.111,379.017c-.087-.536-.466-1.842,1.341-3.484,11.706-10.552,32.242-17.743,48.078-15.446,11.231,1.1,13.478,4.978,14.2,6.256.427.762,3.623,8.376-3.384,9.831-3.1.57-8.326-2.539-13.6-3.749a59.006,59.006,0,0,0-31.5,1.812,57.883,57.883,0,0,0-11.625,5.3c-1.082.7-3.046,1.6-3.512-.523" transform="translate(-323.018 -350.802)" fill="#d9000d" fill-rule="evenodd"/>
        <path id="Path_20" data-name="Path 20" d="M336.114,603.654c9.842-.76,14.78,2.349,15.609,2.7s5.23,2.2,7.4.429a5.228,5.228,0,0,0,1.232-6.6c-.514-.906-2.164-3.257-8.254-3.179-11.061.2-15.32,1.733-19.5,2.9a27.9,27.9,0,0,0-4.459,1.707c-.975.568-1.646,1.376-1.328,2.23s1.169,1,2.182.9a39.738,39.738,0,0,1,7.118-1.091" transform="translate(-326.316 -561.44)" fill="#578723" fill-rule="evenodd"/>
        <path id="Path_21" data-name="Path 21" d="M343.027,503.574a42.758,42.758,0,0,1,27.35-2.173c.919.255,7.562,1.8,8.257,1.931s5.663,1.232,7.529-3.131c1.711-4.664-1.485-7.392-4.474-8.017a55.669,55.669,0,0,0-39.844,7.795c-.139.118-1.781,1.156-1.019,2.767a1.431,1.431,0,0,0,2.2.827" transform="translate(-338.643 -467.603)" fill="#fff" fill-rule="evenodd"/>
      </g>
    </g>
  </g>
</svg>
